<svg width="38" height="13" viewBox="0 0 38 13" fill="none" xmlns="http://www.w3.org/2000/svg">
<path d="M1.57422 0.046875V10H0.254883V0.046875H1.57422ZM5.04004 4.07324V10H3.76855V2.60352H4.97168L5.04004 4.07324ZM4.78027 6.02148L4.19238 6.00098C4.19694 5.49512 4.26302 5.02799 4.39062 4.59961C4.51823 4.16667 4.70736 3.79069 4.95801 3.47168C5.20866 3.15267 5.52083 2.90658 5.89453 2.7334C6.26823 2.55566 6.70117 2.4668 7.19336 2.4668C7.53971 2.4668 7.85872 2.51693 8.15039 2.61719C8.44206 2.71289 8.69499 2.86556 8.90918 3.0752C9.12337 3.28483 9.28971 3.55371 9.4082 3.88184C9.52669 4.20996 9.58594 4.60645 9.58594 5.07129V10H8.32129V5.13281C8.32129 4.74544 8.25521 4.43555 8.12305 4.20312C7.99544 3.9707 7.81315 3.80208 7.57617 3.69727C7.33919 3.58789 7.0612 3.5332 6.74219 3.5332C6.36849 3.5332 6.05632 3.59928 5.80566 3.73145C5.55501 3.86361 5.35449 4.0459 5.2041 4.27832C5.05371 4.51074 4.94434 4.77734 4.87598 5.07812C4.81217 5.37435 4.78027 5.6888 4.78027 6.02148ZM9.57227 5.32422L8.72461 5.58398C8.72917 5.17839 8.79525 4.78874 8.92285 4.41504C9.05501 4.04134 9.24414 3.70866 9.49023 3.41699C9.74089 3.12533 10.0485 2.89518 10.4131 2.72656C10.7777 2.55339 11.1947 2.4668 11.6641 2.4668C12.0605 2.4668 12.4115 2.51921 12.7168 2.62402C13.0267 2.72884 13.2865 2.89062 13.4961 3.10938C13.7103 3.32357 13.8721 3.59928 13.9814 3.93652C14.0908 4.27376 14.1455 4.6748 14.1455 5.13965V10H12.874V5.12598C12.874 4.71126 12.8079 4.38997 12.6758 4.16211C12.5482 3.92969 12.3659 3.7679 12.1289 3.67676C11.8965 3.58105 11.6185 3.5332 11.2949 3.5332C11.0169 3.5332 10.7708 3.58105 10.5566 3.67676C10.3424 3.77246 10.1624 3.90462 10.0166 4.07324C9.87077 4.2373 9.75911 4.42643 9.68164 4.64062C9.60872 4.85482 9.57227 5.08268 9.57227 5.32422ZM20.4209 8.73535V4.92773C20.4209 4.63607 20.3617 4.38314 20.2432 4.16895C20.1292 3.9502 19.9561 3.78158 19.7236 3.66309C19.4912 3.5446 19.2041 3.48535 18.8623 3.48535C18.5433 3.48535 18.263 3.54004 18.0215 3.64941C17.7845 3.75879 17.5977 3.90234 17.4609 4.08008C17.3288 4.25781 17.2627 4.44922 17.2627 4.6543H15.998C15.998 4.38997 16.0664 4.12793 16.2031 3.86816C16.3398 3.6084 16.5358 3.3737 16.791 3.16406C17.0508 2.94987 17.3607 2.78125 17.7207 2.6582C18.0853 2.5306 18.4909 2.4668 18.9375 2.4668C19.4753 2.4668 19.9492 2.55794 20.3594 2.74023C20.7741 2.92253 21.0977 3.19824 21.3301 3.56738C21.5671 3.93197 21.6855 4.38997 21.6855 4.94141V8.38672C21.6855 8.63281 21.7061 8.89486 21.7471 9.17285C21.7926 9.45085 21.8587 9.6901 21.9453 9.89062V10H20.626C20.5622 9.85417 20.512 9.66048 20.4756 9.41895C20.4391 9.17285 20.4209 8.94499 20.4209 8.73535ZM20.6396 5.51562L20.6533 6.4043H19.375C19.015 6.4043 18.6937 6.43392 18.4111 6.49316C18.1286 6.54785 17.8916 6.63216 17.7002 6.74609C17.5088 6.86003 17.363 7.00358 17.2627 7.17676C17.1624 7.34538 17.1123 7.54362 17.1123 7.77148C17.1123 8.00391 17.1647 8.21582 17.2695 8.40723C17.3743 8.59863 17.5316 8.7513 17.7412 8.86523C17.9554 8.97461 18.2174 9.0293 18.5273 9.0293C18.9147 9.0293 19.2565 8.94727 19.5527 8.7832C19.849 8.61914 20.0837 8.41862 20.2568 8.18164C20.4346 7.94466 20.5303 7.71452 20.5439 7.49121L21.084 8.09961C21.0521 8.29102 20.9655 8.50293 20.8242 8.73535C20.6829 8.96777 20.4938 9.19108 20.2568 9.40527C20.0244 9.61491 19.7464 9.79036 19.4229 9.93164C19.1038 10.0684 18.7438 10.1367 18.3428 10.1367C17.8415 10.1367 17.4017 10.0387 17.0234 9.84277C16.6497 9.64681 16.3581 9.38477 16.1484 9.05664C15.9434 8.72396 15.8408 8.35254 15.8408 7.94238C15.8408 7.5459 15.9183 7.19727 16.0732 6.89648C16.2282 6.59115 16.4515 6.33822 16.7432 6.1377C17.0348 5.93262 17.3857 5.77767 17.7959 5.67285C18.2061 5.56803 18.6641 5.51562 19.1699 5.51562H20.6396ZM28.4668 2.60352H29.6152V9.84277C29.6152 10.4945 29.4831 11.0505 29.2188 11.5107C28.9544 11.971 28.5853 12.3197 28.1113 12.5566C27.6419 12.7982 27.0996 12.9189 26.4844 12.9189C26.2292 12.9189 25.9284 12.8779 25.582 12.7959C25.2402 12.7184 24.903 12.584 24.5703 12.3926C24.2422 12.2057 23.9665 11.9528 23.7432 11.6338L24.4062 10.8818C24.7161 11.2555 25.0397 11.5153 25.377 11.6611C25.7188 11.807 26.056 11.8799 26.3887 11.8799C26.7897 11.8799 27.1361 11.8047 27.4277 11.6543C27.7194 11.5039 27.945 11.2806 28.1045 10.9844C28.2686 10.6927 28.3506 10.3327 28.3506 9.9043V4.23047L28.4668 2.60352ZM23.374 6.38379V6.24023C23.374 5.67513 23.4401 5.16243 23.5723 4.70215C23.709 4.2373 23.9027 3.83854 24.1533 3.50586C24.4085 3.17318 24.7161 2.91797 25.0762 2.74023C25.4362 2.55794 25.8418 2.4668 26.293 2.4668C26.7578 2.4668 27.1634 2.54883 27.5098 2.71289C27.8607 2.8724 28.1569 3.1071 28.3984 3.41699C28.6445 3.72233 28.8382 4.09147 28.9795 4.52441C29.1208 4.95736 29.2188 5.44727 29.2734 5.99414V6.62305C29.2233 7.16536 29.1253 7.65299 28.9795 8.08594C28.8382 8.51888 28.6445 8.88802 28.3984 9.19336C28.1569 9.4987 27.8607 9.7334 27.5098 9.89746C27.1589 10.057 26.7487 10.1367 26.2793 10.1367C25.8372 10.1367 25.4362 10.0433 25.0762 9.85645C24.7207 9.6696 24.4154 9.40755 24.1602 9.07031C23.9049 8.73307 23.709 8.33659 23.5723 7.88086C23.4401 7.42057 23.374 6.92155 23.374 6.38379ZM24.6387 6.24023V6.38379C24.6387 6.75293 24.6751 7.09928 24.748 7.42285C24.8255 7.74642 24.9417 8.03125 25.0967 8.27734C25.2562 8.52344 25.459 8.71712 25.7051 8.8584C25.9512 8.99512 26.2451 9.06348 26.5869 9.06348C27.0062 9.06348 27.3525 8.97461 27.626 8.79688C27.8994 8.61914 28.1159 8.38444 28.2754 8.09277C28.4395 7.80111 28.5671 7.48438 28.6582 7.14258V5.49512C28.6081 5.24447 28.5306 5.00293 28.4258 4.77051C28.3255 4.53353 28.1934 4.32389 28.0293 4.1416C27.8698 3.95475 27.6715 3.80664 27.4346 3.69727C27.1976 3.58789 26.9196 3.5332 26.6006 3.5332C26.2542 3.5332 25.9557 3.60612 25.7051 3.75195C25.459 3.89323 25.2562 4.08919 25.0967 4.33984C24.9417 4.58594 24.8255 4.87305 24.748 5.20117C24.6751 5.52474 24.6387 5.87109 24.6387 6.24023ZM34.6055 10.1367C34.0905 10.1367 33.6234 10.0501 33.2041 9.87695C32.7894 9.69922 32.4316 9.45085 32.1309 9.13184C31.8346 8.81283 31.6068 8.43457 31.4473 7.99707C31.2878 7.55957 31.208 7.08105 31.208 6.56152V6.27441C31.208 5.67285 31.2969 5.13737 31.4746 4.66797C31.6523 4.19401 31.8939 3.79297 32.1992 3.46484C32.5046 3.13672 32.8509 2.88835 33.2383 2.71973C33.6257 2.55111 34.0267 2.4668 34.4414 2.4668C34.9701 2.4668 35.4258 2.55794 35.8086 2.74023C36.196 2.92253 36.5127 3.17773 36.7588 3.50586C37.0049 3.82943 37.1872 4.21224 37.3057 4.6543C37.4242 5.0918 37.4834 5.57031 37.4834 6.08984V6.65723H31.96V5.625H36.2188V5.5293C36.2005 5.20117 36.1322 4.88216 36.0137 4.57227C35.8997 4.26237 35.7174 4.00716 35.4668 3.80664C35.2161 3.60612 34.8743 3.50586 34.4414 3.50586C34.1543 3.50586 33.89 3.56738 33.6484 3.69043C33.4069 3.80892 33.1995 3.98665 33.0264 4.22363C32.8532 4.46061 32.7188 4.75 32.623 5.0918C32.5273 5.43359 32.4795 5.8278 32.4795 6.27441V6.56152C32.4795 6.91243 32.5273 7.24284 32.623 7.55273C32.7233 7.85807 32.8669 8.12695 33.0537 8.35938C33.2451 8.5918 33.4753 8.77409 33.7441 8.90625C34.0176 9.03841 34.3275 9.10449 34.6738 9.10449C35.1204 9.10449 35.4987 9.01335 35.8086 8.83105C36.1185 8.64876 36.3896 8.40495 36.6221 8.09961L37.3877 8.70801C37.2282 8.94954 37.0254 9.17969 36.7793 9.39844C36.5332 9.61719 36.2301 9.79492 35.8701 9.93164C35.5146 10.0684 35.0931 10.1367 34.6055 10.1367Z" fill="white"/>
</svg>
